<?xml version="1.0" encoding="UTF-8" standalone="no"?>
<!DOCTYPE svg PUBLIC "-//W3C//DTD SVG 1.1//EN" "http://www.w3.org/Graphics/SVG/1.1/DTD/svg11.dtd">
<svg width="100%" height="100%" viewBox="0 0 2048 2048" version="1.1" xmlns="http://www.w3.org/2000/svg" xmlns:xlink="http://www.w3.org/1999/xlink" xml:space="preserve" xmlns:serif="http://www.serif.com/" style="fill-rule:evenodd;clip-rule:evenodd;stroke-linejoin:round;stroke-miterlimit:2;">
    <rect x="0" y="0" width="2048" height="2048" style="fill:rgb(251,82,2);fill-rule:nonzero;"/>
    <g transform="matrix(1,0,0,1,1351,527)">
        <path d="M0,0L15,0L25,5L30,11L33,21L36,44L40,80L48,146L57,220L63,264L67,304L75,368L82,428L88,480L97,554L102,593L107,640L111,664L112,667L117,642L124,610L135,558L147,500L161,430L171,382L176,361L182,352L191,347L204,347L213,351L220,357L223,363L227,378L232,394L238,413L249,448L258,476L265,497L269,510L275,526L279,521L288,507L297,496L306,488L320,480L329,476L348,472L460,472L468,475C471.456,476.982 474.114,479.32 476,482L479,488C480.13,493.145 479.965,498.506 479,504C478.281,507.135 477.242,509.737 476,512C474.125,514.825 471.748,516.746 469,518C465.863,520.315 462.486,521.431 459,522L352,523L339,527L331,533L325,540L313,562L304,581L294,599L287,608C284.486,610.963 281.19,612.689 277,613L264,613C258.363,613.228 248.127,603.465 247,600L239,576L230,547L221,520L217,506L208,480L204,466L203,466L190,529L184,557L182,569L177,593L171,621L166,647L161,671L155,701L150,724L148,737L145,749L141,769L139,780L132,814L130,822L125,830L120,834L113,837L100,837L90,832L85,826L81,818L76,776L72,745L69,719L66,695L60,644L56,612L54,598L49,557L44,510L39,470L33,418L27,370L25,350L23,338L17,284L11,234L7,198L6,198L1,228L-8,291L-16,345L-24,402L-32,457L-41,517L-45,547L-49,572L-54,608L-57,625L-59,637L-63,646L-69,653L-77,657L-92,657L-102,651L-106,646L-109,640L-113,624L-117,609L-123,584L-127,568L-133,545L-138,523L-144,500L-153,465L-160,439L-163,426L-163,423L-165,423L-167,429L-179,457L-191,482L-200,493L-209,502L-223,511L-238,517L-254,521L-265,522L-403,522L-418.227,519.716L-432,514L-444,508L-454,500L-462,491L-471,472L-477,448L-489,396L-498,363L-504,339L-511,316L-516,299L-518,295L-530,295L-541,298L-557,306L-566,313L-573,323L-577,336L-580,357L-584,365L-591,371L-599,374L-630,374L-655,371L-676,367L-698,361L-712,356L-724,351L-741,342L-757,331L-769,320L-777,312L-789,296L-797,283L-801,276L-807,260L-812,241L-813,234L-814,186L-816,172L-820,165L-829,166L-845,174L-859,183L-878,197L-888,206L-897,213L-908,223L-916,230L-926,240L-933,248L-944,260L-957,278L-965,291L-973,306L-978,320L-980,334L-980,352L-976,368L-970,382L-958,399L-944,414L-927,427L-912,438L-897,448L-871,463L-848,476L-827,488L-812,497L-793,509L-779,518L-765,528L-752,538L-741,547L-731,555L-715,570L-697,588L-690,596L-678,610L-665,627L-653,643L-641,660L-630,677L-614,701L-596,727L-587,739L-577,752L-568,763L-556,776L-532,800L-521,809L-511,817L-491,831L-473,842L-460,850L-433,863L-405,874L-381,882L-346,891L-322,896L-286,902L-253,905L-208,905L-190,901L-180,896L-171,888L-167,880L-165,872L-165,854L-170,841L-177,831L-187,822L-201,812L-221,801L-230,796L-240,792L-267,779L-283,771L-305,759L-329,743L-339,735L-349,726L-362,713L-371,702L-380,690L-390,675L-401,656L-414,631L-423,611L-428,599L-432,589L-438,575L-445,555L-449.237,541.605L-438.799,547.799L-422.2,552.999L-402.989,555.402L-394.596,555.806L-379,594L-364,626L-350,650L-340,665L-332,675L-321,687L-310,698L-292,711L-274,722L-260,730L-234,742L-219,749L-191,763L-168,777L-152,790L-141,801L-132,814L-127,823L-121,837L-117,853L-116,860L-116,885L-120,903L-126,918L-133,931L-142,942L-151,952L-164,962L-180,971L-196,978L-204,981L-226,987L-261,992L-284,994L-327,995.624L-363,995L-401,993L-435,989L-464,984L-492,977L-493,976L-503,974L-538,962L-568,949L-594,935L-611,924L-627,913L-643,901L-656,890L-664,883L-676,872L-693,856L-728,821L-735,813L-749,798L-793,754L-801,747L-815,735L-832,722L-845,712L-857,704L-871,694L-894,679L-911,668L-931,655L-954,640L-969,630L-991,615L-1005,605L-1018,595L-1035,581L-1046,572L-1063,556L-1071,548L-1078,540L-1091,525L-1102,511L-1111,498L-1120,482L-1125,471L-1130,456L-1132,446L-1132,424L-1128,409L-1120,392L-1111,381L-1099,369L-1091,362L-1075,349L-1062,338L-1060,338L-1059,364L-1056,389L-1056,396L-1058,396L-1060,400L-1070,408L-1078,416L-1082,424L-1084,432L-1084,440L-1078,458L-1069,475L-1059,489L-1046,505L-1035,517L-1025,527L-1014,536L-1004,545L-987,558L-967,573L-956,580L-946,587L-931,597L-914,608L-891,623L-875,633L-860,643L-843,654L-827,665L-810,677L-796,688L-782,700L-771,709L-759,720L-751,727L-723,755L-716,763L-699,780L-692,788L-666,814L-666,816L-663,817L-656,825L-632,847L-618,859L-607,868L-588,882L-559,899L-528,914L-503,923L-487,928L-459,935L-416,942L-373.248,947.248L-336.318,947.726L-303,946L-266,943L-265,942L-285,940L-318,937L-344,933L-380,926L-410,918L-439,908L-463,898L-482,889L-498,881L-520,868L-536,857L-548,848L-561,837L-575,825L-599,801L-608,790L-621,775L-635,756L-648,738L-655,728L-671,704L-678,694L-687,681L-696,667L-710,648L-734,620L-752,602L-760,595L-771,585L-785,574L-799,564L-832,542L-867,521L-893,506L-914,494L-930,484L-942,476L-956,466L-972,453L-984,442L-995,430L-1009,411L-1020,390L-1025,376L-1028,362L-1029,354L-1029,328L-1025,308L-1020,291L-1012,275L-1004,261L-993,245L-984,233L-975,222L-953,198L-942,187L-934,180L-924,171L-913,162L-897,150L-877,136L-859,126L-844,119L-828,115L-813,115L-801,118L-790,124L-779,134L-771,148L-768,158L-766,168L-765,184L-765,225L-763,238L-760,248L-752,264L-745,275L-731,289L-717,299L-702,307L-681,315L-662,320L-645,323L-624,324L-623,316L-615,299L-607,287L-595,274L-583,265L-569,257L-553,250L-538,246L-510,246L-494,252L-485,259L-478,268L-471,282L-463,308L-456,331L-453,342L-448,361L-442,389L-430,437L-424,454L-418,462L-408,468L-400,471L-263,471L-251,468L-241,463L-231,454L-223,440L-213,416L-209,404L-199,376L-193,360L-186,342L-181,333L-174,327L-170,325L-156,325L-147,328L-139,335L-135,344L-130,361L-125,382L-117,413L-102,472L-99,481L-94,502L-90,514L-89,514L-81,464L-77,434L-73,408L-66,360L-58,305L-51,256L-45,218L-36,153L-27,91L-18,28L-15,13L-11,7L-5,2L0,0Z" style="fill:rgb(254,250,245);fill-rule:nonzero;"/>
    </g>
</svg>
